<svg width="104" height="104" viewBox="0 0 104 104" fill="none" xmlns="http://www.w3.org/2000/svg">
<path d="M63.6264 64.2547C62.0394 65.8298 60.1693 67.0912 58.1144 67.9727C54.4109 69.538 50.2784 69.7671 46.4246 68.6209C42.5708 67.4746 39.2353 65.0242 36.9894 61.6893L29.8047 66.5383C31.6816 69.3011 34.0651 71.6831 36.829 73.5583C39.6462 75.4584 42.8085 76.7878 46.137 77.4713C51.2894 78.5189 56.6379 77.9904 61.4857 75.9547C64.5731 74.65 67.3792 72.7606 69.7494 70.3907C70.928 69.2163 72.0027 67.9163 72.93 66.5383L65.7454 61.6893C65.1229 62.6104 64.4133 63.4695 63.6264 64.2547Z" fill="black"/>
<path d="M52 8.66663C28.106 8.66663 8.66669 28.106 8.66669 52C8.66669 75.894 28.106 95.3333 52 95.3333C75.894 95.3333 95.3334 75.894 95.3334 52C95.3334 28.106 75.894 8.66663 52 8.66663ZM52 17.3333C64.7964 17.3333 75.9677 24.323 81.978 34.6666H22.022C28.0324 24.323 39.2037 17.3333 52 17.3333ZM52 86.6666C32.8857 86.6666 17.3334 71.1143 17.3334 52C17.3334 49.0056 17.758 46.111 18.4774 43.3333H21.6667V47.6666C21.6667 49.9652 22.5798 52.1696 24.2051 53.7949C25.8304 55.4202 28.0348 56.3333 30.3334 56.3333H39C41.2986 56.3333 43.503 55.4202 45.1283 53.7949C46.7536 52.1696 47.6667 49.9652 47.6667 47.6666H56.3334C56.3334 49.9652 57.2464 52.1696 58.8718 53.7949C60.4971 55.4202 62.7015 56.3333 65 56.3333H73.6667C75.9652 56.3333 78.1696 55.4202 79.7949 53.7949C81.4203 52.1696 82.3334 49.9652 82.3334 47.6666V43.3333H85.5227C86.242 46.111 86.6667 49.0056 86.6667 52C86.6667 71.1143 71.1144 86.6666 52 86.6666Z" fill="black"/>
</svg>
