<svg width="77" height="77" viewBox="0 0 77 77" fill="none" xmlns="http://www.w3.org/2000/svg">
<path fill-rule="evenodd" clip-rule="evenodd" d="M0 38.5C0 28.2892 4.05624 18.4965 11.2764 11.2764C18.4965 4.05624 28.2892 0 38.5 0C48.7108 0 58.5035 4.05624 65.7236 11.2764C72.9438 18.4965 77 28.2892 77 38.5C77 48.7108 72.9438 58.5035 65.7236 65.7236C58.5035 72.9438 48.7108 77 38.5 77C28.2892 77 18.4965 72.9438 11.2764 65.7236C4.05624 58.5035 0 48.7108 0 38.5ZM20.5333 30.8H25.6667V25.6667H20.5333V30.8ZM51.3333 30.8H56.4667V25.6667H51.3333V30.8ZM25.1533 44.66C26.7073 46.732 28.7224 48.4137 31.039 49.572C33.3556 50.7303 35.91 51.3333 38.5 51.3333C41.09 51.3333 43.6444 50.7303 45.961 49.572C48.2776 48.4137 50.2927 46.732 51.8467 44.66L55.9533 47.74C47.2267 59.3773 29.7733 59.3773 21.0467 47.74L25.1533 44.66Z" fill="black"/>
</svg>
