<svg width="87" height="77" viewBox="0 0 87 77" fill="none" xmlns="http://www.w3.org/2000/svg">
<path d="M58 1.35C54.375 1.35 51.475 4.25 51.475 7.875C51.475 11.5 54.375 14.4 58 14.4C61.625 14.4 64.525 11.5 64.525 7.875C64.525 4.25 61.625 1.35 58 1.35ZM44.95 11.8625C43.2462 11.8625 41.6875 12.5512 40.6 13.675L27.1875 27.0512C26.0637 28.175 25.375 29.625 25.375 31.4375C25.375 33.7212 26.5712 35.6425 28.4562 36.7663L40.6 44.125V62.25H47.125V38.6875L38.9688 32.7063L47.3787 24.1875L53.65 33.25H68.875V26.725H57.275L50.2425 14.8712C49.1912 13.0587 47.125 11.8625 44.95 11.8625ZM36.25 7.875H10.875C8.88125 7.875 7.25 6.24375 7.25 4.25C7.25 2.25625 8.88125 0.625 10.875 0.625H46.3637C45.6025 1.8575 44.9862 3.19875 44.66 4.64875C41.5425 4.72125 38.6062 5.88125 36.25 7.875ZM18.125 40.5C8.12 40.5 0 48.62 0 58.625C0 68.63 8.12 76.75 18.125 76.75C28.13 76.75 36.25 68.63 36.25 58.625C36.25 48.62 28.13 40.5 18.125 40.5ZM18.125 71.3125C11.1288 71.3125 5.4375 65.6212 5.4375 58.625C5.4375 51.6288 11.1288 45.9375 18.125 45.9375C25.1212 45.9375 30.8125 51.6288 30.8125 58.625C30.8125 65.6212 25.1212 71.3125 18.125 71.3125ZM68.875 40.5C58.87 40.5 50.75 48.62 50.75 58.625C50.75 68.63 58.87 76.75 68.875 76.75C78.88 76.75 87 68.63 87 58.625C87 48.62 78.88 40.5 68.875 40.5ZM68.875 71.3125C61.8788 71.3125 56.1875 65.6212 56.1875 58.625C56.1875 51.6288 61.8788 45.9375 68.875 45.9375C75.8712 45.9375 81.5625 51.6288 81.5625 58.625C81.5625 65.6212 75.8712 71.3125 68.875 71.3125ZM19.285 36.875H3.625C1.624 36.875 0 35.2438 0 33.25C0 31.2562 1.624 29.625 3.625 29.625H18.3063C18.2338 30.205 18.125 30.8212 18.125 31.4375C18.125 33.3587 18.56 35.2075 19.285 36.875ZM21.75 22.375H7.25C5.25625 22.375 3.625 20.7438 3.625 18.75C3.625 16.7562 5.25625 15.125 7.25 15.125H28.8912L22.0763 21.9037C21.9313 22.0487 21.75 22.23 21.75 22.375Z" fill="black"/>
</svg>
